CATALOG 0000000000000
FILE "Honkaku Hanafuda (Japan) (Track 1).bin" BINARY
  TRACK 01 MODE1/2352
    INDEX 01 00:00:00
FILE "Honkaku Hanafuda (Japan) (Track 2).bin" BINARY
  TRACK 02 MODE2/2352
    INDEX 00 00:00:00
    INDEX 01 00:03:00
FILE "Honkaku Hanafuda (Japan) (Track 3).bin" BINARY
  TRACK 03 AUDIO
    INDEX 00 00:00:00
    INDEX 01 00:02:00
    INDEX 02 02:05:00
    INDEX 03 05:29:60
    INDEX 04 08:29:12
    INDEX 05 12:45:11
